<svg width="87" height="20" viewBox="0 0 87 20" fill="none" xmlns="http://www.w3.org/2000/svg">
<g clip-path="url(#clip0_11641_113980)">
<path d="M10 4.375C10 4.20924 9.93415 4.05027 9.81694 3.93306C9.69973 3.81585 9.54076 3.75 9.375 3.75C9.20924 3.75 9.05027 3.81585 8.93306 3.93306C8.81585 4.05027 8.75 4.20924 8.75 4.375V11.25C8.75004 11.3602 8.77919 11.4684 8.83451 11.5636C8.88982 11.6589 8.96934 11.7379 9.065 11.7925L13.44 14.2925C13.5836 14.3701 13.7518 14.3885 13.9087 14.3437C14.0657 14.2989 14.1988 14.1944 14.2798 14.0527C14.3608 13.9111 14.3831 13.7433 14.342 13.5854C14.301 13.4274 14.1997 13.2918 14.06 13.2075L10 10.8875V4.375Z" fill="#7FFF6A"/>
<path d="M10 20C12.6522 20 15.1957 18.9464 17.0711 17.0711C18.9464 15.1957 20 12.6522 20 10C20 7.34784 18.9464 4.8043 17.0711 2.92893C15.1957 1.05357 12.6522 0 10 0C7.34784 0 4.8043 1.05357 2.92893 2.92893C1.05357 4.8043 0 7.34784 0 10C0 12.6522 1.05357 15.1957 2.92893 17.0711C4.8043 18.9464 7.34784 20 10 20ZM18.75 10C18.75 12.3206 17.8281 14.5462 16.1872 16.1872C14.5462 17.8281 12.3206 18.75 10 18.75C7.67936 18.75 5.45376 17.8281 3.81282 16.1872C2.17187 14.5462 1.25 12.3206 1.25 10C1.25 7.67936 2.17187 5.45376 3.81282 3.81282C5.45376 2.17187 7.67936 1.25 10 1.25C12.3206 1.25 14.5462 2.17187 16.1872 3.81282C17.8281 5.45376 18.75 7.67936 18.75 10Z" fill="#7FFF6A"/>
</g>
<path d="M25.2557 15L25.2557 5.54545L30.7401 5.54545L30.7401 6.32102L26.119 6.32102L26.119 9.88033L30.4492 9.88033L30.4492 10.6559L26.119 10.6559L26.119 14.2244L30.8324 14.2244L30.8324 15L25.2557 15ZM38.2926 7.90909L35.7028 15L34.8256 15L32.2358 7.90909L33.1268 7.90909L35.2319 13.9151L35.2965 13.9151L37.4016 7.90909L38.2926 7.90909ZM42.5132 15.1477C41.8515 15.1477 41.2791 14.9938 40.7959 14.6861C40.3127 14.3752 39.9388 13.9459 39.6741 13.3981C39.4125 12.8472 39.2817 12.2132 39.2817 11.4961C39.2817 10.7821 39.4125 10.1481 39.6741 9.5941C39.9388 9.03705 40.3035 8.60156 40.7682 8.28764C41.236 7.97064 41.7761 7.81214 42.3886 7.81214C42.7733 7.81214 43.1441 7.88293 43.5012 8.0245C43.8582 8.163 44.1782 8.37689 44.4614 8.66619C44.7476 8.95241 44.9738 9.31404 45.14 9.75107C45.3062 10.185 45.3893 10.699 45.3893 11.293L45.3893 11.6992L39.8495 11.6992L39.8495 10.9744L44.5491 10.9744C44.5491 10.5189 44.4568 10.1096 44.2721 9.74645C44.0905 9.38021 43.8366 9.09091 43.5104 8.87855C43.1872 8.66619 42.8133 8.56001 42.3886 8.56001C41.9392 8.56001 41.5438 8.68004 41.2021 8.9201C40.8605 9.16016 40.5928 9.47715 40.3989 9.87109C40.2081 10.265 40.1111 10.6959 40.108 11.1637L40.108 11.5977C40.108 12.1609 40.205 12.6533 40.3989 13.0749C40.5959 13.4935 40.8744 13.8182 41.2345 14.049C41.5945 14.2798 42.0208 14.3952 42.5132 14.3952C42.8487 14.3952 43.1426 14.3429 43.395 14.2383C43.6504 14.1336 43.8643 13.9936 44.0367 13.8182C44.2121 13.6397 44.3444 13.4442 44.4337 13.2319L45.2139 13.4858C45.1061 13.7843 44.9292 14.0598 44.683 14.3121C44.4398 14.5645 44.1352 14.7676 43.7689 14.9215C43.4057 15.0723 42.9872 15.1477 42.5132 15.1477ZM48.0218 10.5682L48.0218 15L47.2001 15L47.2001 7.90909L47.9988 7.90909L47.9988 9.02166L48.0726 9.02166C48.2388 8.6585 48.4973 8.36766 48.8482 8.14915C49.2021 7.92756 49.6391 7.81676 50.1593 7.81676C50.6363 7.81676 51.0549 7.91679 51.415 8.11683C51.7781 8.3138 52.0597 8.60464 52.2598 8.98935C52.4629 9.37405 52.5645 9.84647 52.5645 10.4066L52.5645 15L51.7427 15L51.7427 10.4574C51.7427 9.87571 51.5796 9.4156 51.2534 9.07706C50.9302 8.73852 50.4963 8.56925 49.9515 8.56925C49.5791 8.56925 49.2483 8.64927 48.959 8.8093C48.6697 8.96934 48.4404 9.20017 48.2711 9.50178C48.1049 9.80031 48.0218 10.1558 48.0218 10.5682ZM57.5214 7.90909L57.5214 8.62464L54.1375 8.62464L54.1375 7.90909L57.5214 7.90909ZM55.1947 6.21023L56.021 6.21023L56.021 13.1488C56.021 13.4442 56.0718 13.6766 56.1734 13.8459C56.2749 14.0121 56.4073 14.1306 56.5704 14.2013C56.7335 14.2691 56.9074 14.3029 57.0921 14.3029C57.1998 14.3029 57.2921 14.2968 57.3691 14.2844C57.446 14.2691 57.5137 14.2537 57.5722 14.2383L57.7476 14.9815C57.6676 15.0123 57.5691 15.04 57.4521 15.0646C57.3352 15.0923 57.1905 15.1062 57.0182 15.1062C56.7166 15.1062 56.4258 15.04 56.1457 14.9077C55.8687 14.7753 55.641 14.5784 55.4624 14.3168C55.2839 14.0552 55.1947 13.7305 55.1947 13.3427L55.1947 6.21023ZM63.2147 15L63.2147 5.54545L64.0779 5.54545L64.0779 14.2244L68.5836 14.2244L68.5836 15L63.2147 15ZM70.3656 15L70.3656 7.90909L71.1919 7.90909L71.1919 15L70.3656 15ZM70.7857 6.69034C70.6164 6.69034 70.4718 6.6334 70.3517 6.51953C70.2317 6.40258 70.1717 6.26255 70.1717 6.09943C70.1717 5.93632 70.2317 5.79782 70.3517 5.68395C70.4718 5.567 70.6164 5.50852 70.7857 5.50852C70.955 5.50852 71.0996 5.567 71.2196 5.68395C71.3397 5.79782 71.3997 5.93632 71.3997 6.09943C71.3997 6.26255 71.3397 6.40258 71.2196 6.51953C71.0996 6.6334 70.955 6.69034 70.7857 6.69034ZM78.8541 7.90909L76.2643 15L75.3872 15L72.7973 7.90909L73.6883 7.90909L75.7934 13.9151L75.858 13.9151L77.9632 7.90909L78.8541 7.90909ZM83.0748 15.1477C82.4131 15.1477 81.8406 14.9938 81.3574 14.6861C80.8742 14.3752 80.5003 13.9459 80.2356 13.3981C79.974 12.8472 79.8432 12.2132 79.8432 11.4961C79.8432 10.7821 79.974 10.1481 80.2356 9.5941C80.5003 9.03705 80.865 8.60156 81.3297 8.28764C81.7975 7.97064 82.3377 7.81214 82.9501 7.81214C83.3348 7.81214 83.7057 7.88293 84.0627 8.0245C84.4197 8.163 84.7398 8.37689 85.0229 8.66619C85.3091 8.95241 85.5353 9.31404 85.7015 9.75107C85.8677 10.185 85.9508 10.699 85.9508 11.293L85.9508 11.6992L80.411 11.6992L80.411 10.9744L85.1106 10.9744C85.1106 10.5189 85.0183 10.1096 84.8336 9.74645C84.652 9.38021 84.3981 9.09091 84.0719 8.87855C83.7488 8.66619 83.3748 8.56001 82.9501 8.56001C82.5008 8.56001 82.1053 8.68004 81.7637 8.9201C81.4221 9.16016 81.1543 9.47715 80.9604 9.87109C80.7696 10.265 80.6726 10.6959 80.6696 11.1637L80.6696 11.5977C80.6696 12.1609 80.7665 12.6533 80.9604 13.0749C81.1574 13.4935 81.4359 13.8182 81.796 14.049C82.1561 14.2798 82.5823 14.3952 83.0748 14.3952C83.4102 14.3952 83.7041 14.3429 83.9565 14.2383C84.2119 14.1336 84.4258 13.9936 84.5982 13.8182C84.7736 13.6397 84.906 13.4442 84.9952 13.2319L85.7754 13.4858C85.6677 13.7843 85.4907 14.0598 85.2445 14.3121C85.0014 14.5645 84.6967 14.7676 84.3304 14.9215C83.9673 15.0723 83.5487 15.1477 83.0748 15.1477Z" fill="#7FFF6A"/>
<defs>
<clipPath id="clip0_11641_113980">
<rect width="20" height="20" fill="white"/>
</clipPath>
</defs>
</svg>
