<svg width="21" height="17" viewBox="0 0 21 17" fill="none" xmlns="http://www.w3.org/2000/svg">
<path d="M20.9004 2.29095C20.1672 2.61856 19.3715 2.83697 18.5447 2.93837C19.3949 2.43135 20.0424 1.62792 20.3466 0.668481C19.5509 1.1365 18.6773 1.47972 17.7413 1.66692C16.9924 0.871291 15.9238 0.37207 14.7459 0.37207C12.4839 0.37207 10.643 2.21294 10.643 4.47504C10.643 4.79485 10.6742 5.10686 10.7522 5.41107C7.34345 5.23947 4.31693 3.6092 2.29665 1.1209C1.94563 1.72933 1.74282 2.43135 1.74282 3.18798C1.74282 4.60764 2.46825 5.86349 3.5681 6.60452C2.89727 6.58112 2.26544 6.39391 1.71162 6.0897V6.1365C1.71162 8.12558 3.12348 9.78705 5.00336 10.1615C4.66014 10.2551 4.29353 10.3097 3.91911 10.3097C3.6539 10.3097 3.39649 10.2863 3.14688 10.2395C3.6695 11.8697 5.18276 13.0554 6.97683 13.0866C5.57278 14.1864 3.80211 14.8417 1.88323 14.8417C1.55562 14.8417 1.228 14.826 0.900391 14.787C2.71786 15.9493 4.87075 16.6279 7.18744 16.6279C14.7381 16.6279 18.8645 10.3721 18.8645 4.95085C18.8645 4.77145 18.8645 4.59204 18.8567 4.42043C19.6601 3.83541 20.3544 3.11778 20.9004 2.29095Z" fill="white"/>
</svg>
