<svg width="20" height="21" viewBox="0 0 20 21" fill="none" xmlns="http://www.w3.org/2000/svg">
<path d="M16.0903 18.9998H3.90873C3.69284 18.9998 3.4858 18.914 3.33314 18.7614C3.18049 18.6087 3.09473 18.4017 3.09473 18.1858V14.4898C3.09473 14.2739 3.18049 14.0669 3.33314 13.9142C3.4858 13.7615 3.69284 13.6758 3.90873 13.6758C4.12461 13.6758 4.33166 13.7615 4.48431 13.9142C4.63697 14.0669 4.72273 14.2739 4.72273 14.4898V17.372H15.2765V14.4898C15.2765 14.2739 15.3623 14.0669 15.5149 13.9142C15.6676 13.7615 15.8746 13.6758 16.0905 13.6758C16.3064 13.6758 16.5135 13.7615 16.6661 13.9142C16.8188 14.0669 16.9045 14.2739 16.9045 14.4898V18.1858C16.9044 18.4017 16.8185 18.6086 16.6659 18.7613C16.5132 18.9139 16.3062 18.9997 16.0903 18.9998Z" fill="white"/>
<path d="M16.7279 8.29041L10.7473 2.30961C10.549 2.11137 10.2801 2 9.99973 2C9.71934 2 9.45043 2.11137 9.25213 2.30961L3.27153 8.29041C3.07844 8.48975 2.97146 8.75701 2.97367 9.03453C2.97587 9.31204 3.0871 9.57757 3.28334 9.77381C3.47958 9.97005 3.7451 10.0813 4.02262 10.0835C4.30013 10.0857 4.56739 9.9787 4.76673 9.78561L8.94253 5.60981V14.7338C8.94253 15.0142 9.05392 15.2831 9.25218 15.4814C9.45044 15.6796 9.71935 15.791 9.99973 15.791C10.2801 15.791 10.549 15.6796 10.7473 15.4814C10.9455 15.2831 11.0569 15.0142 11.0569 14.7338V5.60981L15.2327 9.78561C15.431 9.98385 15.6999 10.0952 15.9803 10.0952C16.2607 10.0952 16.5296 9.98385 16.7279 9.78561C16.8261 9.68745 16.904 9.57091 16.9572 9.44263C17.0104 9.31435 17.0377 9.17686 17.0377 9.03801C17.0377 8.89916 17.0104 8.76167 16.9572 8.63339C16.904 8.50512 16.8261 8.38857 16.7279 8.29041Z" fill="#FFFEF5"/>
</svg>
