<svg width="10" height="19" viewBox="0 0 10 19" fill="none" xmlns="http://www.w3.org/2000/svg">
<path d="M6.16868 8.0436C4.29368 7.338 3.52168 6.8748 3.52168 6.147C3.52168 5.5288 3.98488 4.9112 5.41888 4.9112C6.20648 4.9112 6.85288 5.036 7.37448 5.1914C8.05868 5.3952 8.77248 4.9714 8.94988 4.2798C9.12588 3.5936 8.70808 2.9048 8.02308 2.7246C7.47688 2.581 6.82588 2.4764 6.03648 2.4408V1.5808C6.03648 1.29415 5.92261 1.01925 5.71993 0.816559C5.51724 0.61387 5.24233 0.5 4.95568 0.5C4.66904 0.5 4.39413 0.61387 4.19144 0.816559C3.98875 1.01925 3.87488 1.29415 3.87488 1.5808V2.5952C1.51448 3.0584 0.146484 4.5804 0.146484 6.5218C0.146484 8.6612 1.75688 9.7642 4.11728 10.5584C5.74989 11.1102 6.45548 11.6398 6.45548 12.4776C6.45548 13.3604 5.59548 13.845 4.33808 13.845C3.47768 13.845 2.66508 13.6782 1.95228 13.4354C1.25168 13.1966 0.494685 13.5822 0.310685 14.299L0.284085 14.4026C0.117685 15.0516 0.478285 15.722 1.11488 15.9308C1.88208 16.1824 2.81408 16.3618 3.76408 16.4042V17.4192C3.76408 17.7058 3.87795 17.9808 4.08064 18.1834C4.28333 18.3861 4.55824 18.5 4.84488 18.5H4.84548C4.98742 18.5 5.12798 18.4721 5.25912 18.4178C5.39026 18.3635 5.50942 18.2839 5.60978 18.1835C5.71015 18.0831 5.78976 17.964 5.84407 17.8328C5.89837 17.7017 5.92631 17.5611 5.92628 17.4192V16.2498C8.46248 15.8088 9.85288 14.1324 9.85288 12.1688C9.85288 10.1838 8.79368 8.9706 6.16868 8.0436Z" fill="#F8B26A"/>
</svg>
