<svg width="35" height="29" viewBox="0 0 35 29" fill="none" xmlns="http://www.w3.org/2000/svg">
<path d="M10.597 17.386L33.1 16.255V3.85303H7.75L10.597 17.386Z" fill="#A53FAA"/>
<path d="M34.0758 16.2549V3.85295C34.0758 3.30695 33.6468 2.87795 33.1008 2.87795H8.53078L8.10178 0.927949C8.06278 0.654949 7.90678 0.459949 7.67278 0.303949C7.43878 0.147949 7.20478 0.108949 6.93178 0.186949L1.70578 1.31795C1.43278 1.35695 1.23778 1.51295 1.08178 1.74695C0.925781 1.98095 0.886781 2.21495 0.964781 2.48795C1.04278 2.76095 1.15978 2.95595 1.39378 3.11195C1.62778 3.26795 1.86178 3.30695 2.13478 3.22895L6.46378 2.29295L6.81478 3.89195C6.81478 4.00895 6.85378 4.12595 6.89278 4.20395L10.0908 19.4529L8.99878 21.4809C8.84278 21.7929 8.84278 22.1439 9.03778 22.4559C9.19378 22.7289 9.54478 22.9239 9.85678 22.9239H30.8778C31.4238 22.9239 31.8528 22.4949 31.8528 21.9489C31.8528 21.4029 31.4238 20.9739 30.8778 20.9739H11.4558L11.9238 20.077C12.0408 19.8819 12.0798 19.6479 12.0018 19.4139L11.7678 18.3219L33.1398 17.2299C33.6858 17.1909 34.0758 16.7619 34.0758 16.2549ZM32.1258 15.3189H31.9308L11.3778 16.3719L8.95978 4.82795H32.1258V15.3189Z" fill="#DA70DC"/>
<path d="M10.949 28.0718C12.3706 28.0718 13.523 26.9194 13.523 25.4978C13.523 24.0762 12.3706 22.9238 10.949 22.9238C9.52742 22.9238 8.375 24.0762 8.375 25.4978C8.375 26.9194 9.52742 28.0718 10.949 28.0718Z" fill="#74007A"/>
<path d="M10.9497 28.852C9.1167 28.852 7.5957 27.331 7.5957 25.498C7.5957 23.665 9.1167 22.144 10.9497 22.144C12.7827 22.144 14.3037 23.665 14.3037 25.498C14.3037 27.331 12.7827 28.852 10.9497 28.852ZM10.9497 23.704C9.9747 23.704 9.1557 24.523 9.1557 25.498C9.1557 26.473 9.9747 27.292 10.9497 27.292C11.9247 27.292 12.7437 26.473 12.7437 25.498C12.7437 24.484 11.9247 23.704 10.9497 23.704Z" fill="#DA70DC"/>
<path d="M28.9275 28.0718C30.3491 28.0718 31.5015 26.9194 31.5015 25.4978C31.5015 24.0762 30.3491 22.9238 28.9275 22.9238C27.5059 22.9238 26.3535 24.0762 26.3535 25.4978C26.3535 26.9194 27.5059 28.0718 28.9275 28.0718Z" fill="#74007A"/>
<path d="M28.9282 28.852C27.0952 28.852 25.5742 27.331 25.5742 25.498C25.5742 23.665 27.0952 22.144 28.9282 22.144C30.7612 22.144 32.2822 23.665 32.2822 25.498C32.2822 27.331 30.7612 28.852 28.9282 28.852ZM28.9282 23.704C27.9532 23.704 27.1342 24.523 27.1342 25.498C27.1342 26.473 27.9532 27.292 28.9282 27.292C29.9032 27.292 30.7222 26.473 30.7222 25.498C30.7222 24.484 29.9032 23.704 28.9282 23.704Z" fill="#DA70DC"/>
</svg>
