<svg width="14" height="15" viewBox="0 0 14 15" fill="none" xmlns="http://www.w3.org/2000/svg">
<path d="M2.90923 7.15422C2.90924 7.07593 2.92469 6.99842 2.95469 6.92613C2.98468 6.85384 3.02864 6.7882 3.08402 6.73298C3.13941 6.67775 3.20514 6.63404 3.27744 6.60434C3.34973 6.57463 3.42717 6.55953 3.50531 6.5599L4.49355 6.56313C4.65112 6.56313 4.80224 6.62584 4.91366 6.73747C5.02508 6.8491 5.08768 7.0005 5.08768 7.15837V10.9025C5.19898 10.8694 5.34143 10.8342 5.49818 10.7972C5.60677 10.7716 5.70356 10.71 5.77283 10.6224C5.84211 10.5348 5.87982 10.4263 5.87984 10.3145V5.67056C5.87984 5.51268 5.94243 5.36126 6.05385 5.24962C6.16527 5.13797 6.31638 5.07523 6.47396 5.0752H7.46521C7.62279 5.07523 7.77391 5.13797 7.88532 5.24962C7.99674 5.36126 8.05933 5.51268 8.05933 5.67056V9.98089C8.05933 9.98089 8.30731 9.88036 8.54872 9.7782C8.63843 9.74019 8.71498 9.67656 8.76882 9.59524C8.82267 9.51392 8.85142 9.41852 8.85149 9.32094V4.18239C8.85149 4.02455 8.91407 3.87316 9.02547 3.76154C9.13686 3.64991 9.28795 3.58718 9.4455 3.58715H10.4357C10.5932 3.58731 10.7441 3.65009 10.8554 3.7617C10.9667 3.87331 11.0293 4.02463 11.0293 4.18239V8.4138C11.8877 7.79048 12.7578 7.04073 13.4482 6.13926C13.5484 6.00841 13.6146 5.85475 13.6411 5.69199C13.6676 5.52923 13.6535 5.36243 13.6 5.20647C13.2804 4.28526 12.7723 3.44103 12.1084 2.72781C11.4444 2.01459 10.6392 1.44809 9.74418 1.06455C8.84916 0.681021 7.88409 0.488903 6.91071 0.500495C5.93733 0.512087 4.97709 0.727132 4.09142 1.13187C3.20575 1.53661 2.41417 2.12213 1.76733 2.85096C1.12049 3.57979 0.632633 4.43588 0.334978 5.36445C0.0373219 6.29302 -0.063576 7.27361 0.0387397 8.24349C0.141055 9.21337 0.444332 10.1512 0.929162 10.9969C1.01363 11.1428 1.1379 11.2615 1.28738 11.3391C1.43686 11.4166 1.60532 11.4499 1.773 11.4349C1.96031 11.4183 2.19353 11.395 2.47081 11.3624C2.59149 11.3486 2.70291 11.2909 2.78384 11.2002C2.86477 11.1094 2.90956 10.992 2.90969 10.8703V7.15422" fill="white"/>
<path d="M2.88672 13.1585C3.93047 13.9192 5.16392 14.3759 6.45062 14.4779C7.73733 14.5799 9.02711 14.3233 10.1773 13.7364C11.3274 13.1496 12.2932 12.2554 12.9676 11.1528C13.642 10.0502 13.9988 8.78223 13.9986 7.48908C13.9986 7.3273 13.9911 7.16805 13.9804 7.00928C11.424 10.8291 6.70405 12.6148 2.88672 13.1585Z" fill="#F0B90B"/>
</svg>
