<svg width="8" height="15" viewBox="0 0 8 15" fill="none" xmlns="http://www.w3.org/2000/svg">
<path d="M4.93495 6.33468C3.43495 5.7702 2.81735 5.39964 2.81735 4.8174C2.81735 4.32284 3.18791 3.82876 4.33511 3.82876C4.96519 3.82876 5.48231 3.9286 5.89959 4.05292C6.44695 4.21596 7.01799 3.87692 7.15991 3.32364C7.30071 2.77468 6.96647 2.22364 6.41847 2.07948C5.98151 1.9646 5.46071 1.88092 4.82919 1.85244V1.16444C4.82919 0.935128 4.73809 0.715203 4.57594 0.553052C4.41379 0.3909 4.19386 0.299805 3.96455 0.299805C3.73523 0.299805 3.51531 0.3909 3.35315 0.553052C3.191 0.715203 3.09991 0.935128 3.09991 1.16444V1.97596C1.21159 2.34652 0.117188 3.56412 0.117188 5.11724C0.117188 6.82876 1.40551 7.71116 3.29383 8.34652C4.59991 8.78796 5.16439 9.21164 5.16439 9.88188C5.16439 10.5881 4.47639 10.9758 3.47047 10.9758C2.78215 10.9758 2.13207 10.8424 1.56183 10.6481C1.00135 10.4571 0.395748 10.7656 0.248548 11.339L0.227268 11.4219C0.0941478 11.9411 0.382628 12.4774 0.891908 12.6444C1.50567 12.8457 2.25127 12.9892 3.01127 13.0232V13.8352C3.01127 14.0645 3.10236 14.2844 3.26452 14.4466C3.42667 14.6087 3.64659 14.6998 3.87591 14.6998H3.87639C3.98994 14.6998 4.10238 14.6775 4.2073 14.634C4.31221 14.5906 4.40753 14.5269 4.48783 14.4466C4.56812 14.3663 4.63181 14.271 4.67525 14.1661C4.7187 14.0612 4.74105 13.9487 4.74103 13.8352V12.8996C6.76999 12.5468 7.88231 11.2057 7.88231 9.63484C7.88231 8.04684 7.03495 7.07628 4.93495 6.33468Z" fill="#F8B26A"/>
</svg>
