<svg width="12" height="13" viewBox="0 0 12 13" fill="none" xmlns="http://www.w3.org/2000/svg">
<g clip-path="url(#clip0_10885_128513)">
<path d="M1.125 0.5C0.826631 0.5 0.540483 0.618526 0.329505 0.829505C0.118526 1.04048 0 1.32663 0 1.625L0 10.25C0 10.4489 0.0790176 10.6397 0.21967 10.7803C0.360322 10.921 0.551088 11 0.75 11V1.625C0.75 1.52554 0.789509 1.43016 0.859835 1.35983C0.930161 1.28951 1.02554 1.25 1.125 1.25H10.5C10.5 1.05109 10.421 0.860322 10.2803 0.71967C10.1397 0.579018 9.94891 0.5 9.75 0.5H1.125Z" fill="white"/>
<path d="M2.625 2C2.32663 2 2.04048 2.11853 1.8295 2.3295C1.61853 2.54048 1.5 2.82663 1.5 3.125V11.375C1.5 11.6734 1.61853 11.9595 1.8295 12.1705C2.04048 12.3815 2.32663 12.5 2.625 12.5H7.1895C7.48777 12.4997 7.77372 12.381 7.9845 12.17L11.6707 8.4845C11.8815 8.2736 11.9999 7.98766 12 7.6895V3.125C12 2.82663 11.8815 2.54048 11.6705 2.3295C11.4595 2.11853 11.1734 2 10.875 2H2.625ZM2.25 3.125C2.25 3.02554 2.28951 2.93016 2.35984 2.85984C2.43016 2.78951 2.52554 2.75 2.625 2.75H10.875C10.9745 2.75 11.0698 2.78951 11.1402 2.85984C11.2105 2.93016 11.25 3.02554 11.25 3.125V7.25H7.875C7.57663 7.25 7.29048 7.36853 7.0795 7.5795C6.86853 7.79048 6.75 8.07663 6.75 8.375V11.75H2.625C2.52554 11.75 2.43016 11.7105 2.35984 11.6402C2.28951 11.5698 2.25 11.4745 2.25 11.375V3.125ZM7.5 11.5948V8.375C7.5 8.27554 7.53951 8.18016 7.60983 8.10983C7.68016 8.03951 7.77554 8 7.875 8H11.0948L7.5 11.5948Z" fill="white"/>
</g>
<defs>
<clipPath id="clip0_10885_128513">
<rect width="12" height="12" fill="white" transform="translate(0 0.5)"/>
</clipPath>
</defs>
</svg>
